<mxfile host="app.diagrams.net" modified="2023-09-05T14:00:37.168Z" agent="Mozilla/5.0 (Windows NT 10.0; Win64; x64) AppleWebKit/537.36 (KHTML, like Gecko) Chrome/116.0.0.0 Safari/537.36" etag="usKtqcz6yQENAAbGmFOw" version="21.7.2" type="github">
  <diagram name="Page-1" id="q8vg-6b3FtOwbM_TqkCc">
    <mxGraphModel dx="2119" dy="1590" grid="0" gridSize="10" guides="1" tooltips="1" connect="1" arrows="1" fold="1" page="0" pageScale="1" pageWidth="827" pageHeight="1169" math="0" shadow="0">
      <root>
        <mxCell id="0" />
        <mxCell id="1" parent="0" />
        <mxCell id="SrYekb5oVtJgjW_BPTSZ-1" value="&lt;font style=&quot;font-size: 20px;&quot;&gt;1&lt;/font&gt;" style="ellipse;whiteSpace=wrap;html=1;aspect=fixed;" vertex="1" parent="1">
          <mxGeometry x="180" y="290" width="80" height="80" as="geometry" />
        </mxCell>
        <mxCell id="SrYekb5oVtJgjW_BPTSZ-2" value="&lt;font style=&quot;font-size: 20px;&quot;&gt;2&lt;/font&gt;" style="ellipse;whiteSpace=wrap;html=1;aspect=fixed;" vertex="1" parent="1">
          <mxGeometry x="180" y="390" width="80" height="80" as="geometry" />
        </mxCell>
        <mxCell id="SrYekb5oVtJgjW_BPTSZ-3" value="&lt;font style=&quot;font-size: 20px;&quot;&gt;3&lt;/font&gt;" style="ellipse;whiteSpace=wrap;html=1;aspect=fixed;" vertex="1" parent="1">
          <mxGeometry x="180" y="490" width="80" height="80" as="geometry" />
        </mxCell>
        <mxCell id="SrYekb5oVtJgjW_BPTSZ-4" value="&lt;font style=&quot;font-size: 20px;&quot;&gt;4&lt;/font&gt;" style="ellipse;whiteSpace=wrap;html=1;aspect=fixed;" vertex="1" parent="1">
          <mxGeometry x="180" y="590" width="80" height="80" as="geometry" />
        </mxCell>
        <mxCell id="SrYekb5oVtJgjW_BPTSZ-5" value="&lt;font style=&quot;font-size: 20px;&quot;&gt;5&lt;/font&gt;" style="ellipse;whiteSpace=wrap;html=1;aspect=fixed;" vertex="1" parent="1">
          <mxGeometry x="180" y="690" width="80" height="80" as="geometry" />
        </mxCell>
        <mxCell id="SrYekb5oVtJgjW_BPTSZ-6" value="&lt;font style=&quot;font-size: 20px;&quot;&gt;6&lt;/font&gt;" style="ellipse;whiteSpace=wrap;html=1;aspect=fixed;" vertex="1" parent="1">
          <mxGeometry x="180" y="790" width="80" height="80" as="geometry" />
        </mxCell>
        <mxCell id="SrYekb5oVtJgjW_BPTSZ-7" value="&lt;font style=&quot;font-size: 20px;&quot;&gt;7&lt;/font&gt;" style="ellipse;whiteSpace=wrap;html=1;aspect=fixed;" vertex="1" parent="1">
          <mxGeometry x="180" y="890" width="80" height="80" as="geometry" />
        </mxCell>
        <mxCell id="SrYekb5oVtJgjW_BPTSZ-8" value="&lt;font style=&quot;font-size: 25px;&quot;&gt;Input Layer&lt;/font&gt;" style="text;html=1;align=center;verticalAlign=middle;resizable=0;points=[];autosize=1;strokeColor=none;fillColor=none;" vertex="1" parent="1">
          <mxGeometry x="145" y="220" width="150" height="40" as="geometry" />
        </mxCell>
        <mxCell id="SrYekb5oVtJgjW_BPTSZ-9" value="" style="shape=flexArrow;endArrow=classic;html=1;rounded=0;" edge="1" parent="1">
          <mxGeometry width="50" height="50" relative="1" as="geometry">
            <mxPoint x="90" y="329.5" as="sourcePoint" />
            <mxPoint x="170" y="329.5" as="targetPoint" />
          </mxGeometry>
        </mxCell>
        <mxCell id="SrYekb5oVtJgjW_BPTSZ-10" value="&lt;font style=&quot;font-size: 25px;&quot;&gt;Time&lt;/font&gt;" style="text;html=1;align=right;verticalAlign=middle;resizable=0;points=[];autosize=1;strokeColor=none;fillColor=none;" vertex="1" parent="1">
          <mxGeometry y="310" width="80" height="40" as="geometry" />
        </mxCell>
        <mxCell id="SrYekb5oVtJgjW_BPTSZ-11" value="" style="shape=flexArrow;endArrow=classic;html=1;rounded=0;" edge="1" parent="1">
          <mxGeometry width="50" height="50" relative="1" as="geometry">
            <mxPoint x="90" y="429.5" as="sourcePoint" />
            <mxPoint x="170" y="429.5" as="targetPoint" />
          </mxGeometry>
        </mxCell>
        <mxCell id="SrYekb5oVtJgjW_BPTSZ-12" value="&lt;font style=&quot;font-size: 25px;&quot;&gt;Day of week&lt;/font&gt;" style="text;html=1;align=right;verticalAlign=middle;resizable=0;points=[];autosize=1;strokeColor=none;fillColor=none;" vertex="1" parent="1">
          <mxGeometry x="-80" y="410" width="160" height="40" as="geometry" />
        </mxCell>
        <mxCell id="SrYekb5oVtJgjW_BPTSZ-13" value="" style="shape=flexArrow;endArrow=classic;html=1;rounded=0;" edge="1" parent="1">
          <mxGeometry width="50" height="50" relative="1" as="geometry">
            <mxPoint x="90" y="529.5" as="sourcePoint" />
            <mxPoint x="170" y="529.5" as="targetPoint" />
          </mxGeometry>
        </mxCell>
        <mxCell id="SrYekb5oVtJgjW_BPTSZ-14" value="&lt;font style=&quot;font-size: 25px;&quot;&gt;Light Condition&lt;/font&gt;" style="text;html=1;align=right;verticalAlign=middle;resizable=0;points=[];autosize=1;strokeColor=none;fillColor=none;" vertex="1" parent="1">
          <mxGeometry x="-110" y="510" width="190" height="40" as="geometry" />
        </mxCell>
        <mxCell id="SrYekb5oVtJgjW_BPTSZ-15" value="" style="shape=flexArrow;endArrow=classic;html=1;rounded=0;" edge="1" parent="1">
          <mxGeometry width="50" height="50" relative="1" as="geometry">
            <mxPoint x="90" y="629.5" as="sourcePoint" />
            <mxPoint x="170" y="629.5" as="targetPoint" />
          </mxGeometry>
        </mxCell>
        <mxCell id="SrYekb5oVtJgjW_BPTSZ-16" value="&lt;font style=&quot;font-size: 25px;&quot;&gt;Speed Zone&lt;/font&gt;" style="text;html=1;align=right;verticalAlign=middle;resizable=0;points=[];autosize=1;strokeColor=none;fillColor=none;" vertex="1" parent="1">
          <mxGeometry x="-80" y="610" width="160" height="40" as="geometry" />
        </mxCell>
        <mxCell id="SrYekb5oVtJgjW_BPTSZ-21" value="" style="shape=flexArrow;endArrow=classic;html=1;rounded=0;" edge="1" parent="1">
          <mxGeometry width="50" height="50" relative="1" as="geometry">
            <mxPoint x="90" y="729.5" as="sourcePoint" />
            <mxPoint x="170" y="729.5" as="targetPoint" />
          </mxGeometry>
        </mxCell>
        <mxCell id="SrYekb5oVtJgjW_BPTSZ-22" value="&lt;font style=&quot;font-size: 25px;&quot;&gt;Road Surface Condition&lt;/font&gt;" style="text;html=1;align=right;verticalAlign=middle;resizable=0;points=[];autosize=1;strokeColor=none;fillColor=none;" vertex="1" parent="1">
          <mxGeometry x="-210" y="710" width="290" height="40" as="geometry" />
        </mxCell>
        <mxCell id="SrYekb5oVtJgjW_BPTSZ-23" value="" style="shape=flexArrow;endArrow=classic;html=1;rounded=0;" edge="1" parent="1">
          <mxGeometry width="50" height="50" relative="1" as="geometry">
            <mxPoint x="90" y="829.5" as="sourcePoint" />
            <mxPoint x="170" y="829.5" as="targetPoint" />
          </mxGeometry>
        </mxCell>
        <mxCell id="SrYekb5oVtJgjW_BPTSZ-24" value="&lt;font style=&quot;font-size: 25px;&quot;&gt;Atmosphere Condition&lt;/font&gt;" style="text;html=1;align=right;verticalAlign=middle;resizable=0;points=[];autosize=1;strokeColor=none;fillColor=none;" vertex="1" parent="1">
          <mxGeometry x="-190" y="810" width="270" height="40" as="geometry" />
        </mxCell>
        <mxCell id="SrYekb5oVtJgjW_BPTSZ-25" value="" style="shape=flexArrow;endArrow=classic;html=1;rounded=0;" edge="1" parent="1">
          <mxGeometry width="50" height="50" relative="1" as="geometry">
            <mxPoint x="90" y="929.5" as="sourcePoint" />
            <mxPoint x="170" y="929.5" as="targetPoint" />
          </mxGeometry>
        </mxCell>
        <mxCell id="SrYekb5oVtJgjW_BPTSZ-26" value="&lt;font style=&quot;font-size: 25px;&quot;&gt;Local Government Area&lt;/font&gt;" style="text;html=1;align=right;verticalAlign=middle;resizable=0;points=[];autosize=1;strokeColor=none;fillColor=none;" vertex="1" parent="1">
          <mxGeometry x="-210" y="910" width="290" height="40" as="geometry" />
        </mxCell>
        <mxCell id="SrYekb5oVtJgjW_BPTSZ-28" value="&lt;font style=&quot;font-size: 25px;&quot;&gt;Hidden Layer&lt;/font&gt;" style="text;html=1;align=center;verticalAlign=middle;resizable=0;points=[];autosize=1;strokeColor=none;fillColor=none;" vertex="1" parent="1">
          <mxGeometry x="440" y="220" width="170" height="40" as="geometry" />
        </mxCell>
        <mxCell id="SrYekb5oVtJgjW_BPTSZ-57" style="edgeStyle=orthogonalEdgeStyle;rounded=0;orthogonalLoop=1;jettySize=auto;html=1;exitX=1;exitY=0.5;exitDx=0;exitDy=0;entryX=0;entryY=0.5;entryDx=0;entryDy=0;" edge="1" parent="1" source="SrYekb5oVtJgjW_BPTSZ-29" target="SrYekb5oVtJgjW_BPTSZ-33">
          <mxGeometry relative="1" as="geometry" />
        </mxCell>
        <mxCell id="SrYekb5oVtJgjW_BPTSZ-29" value="&lt;font style=&quot;font-size: 20px;&quot;&gt;1&lt;/font&gt;" style="ellipse;whiteSpace=wrap;html=1;aspect=fixed;" vertex="1" parent="1">
          <mxGeometry x="400" y="320" width="80" height="80" as="geometry" />
        </mxCell>
        <mxCell id="SrYekb5oVtJgjW_BPTSZ-30" value="&lt;font style=&quot;font-size: 20px;&quot;&gt;2&lt;/font&gt;" style="ellipse;whiteSpace=wrap;html=1;aspect=fixed;" vertex="1" parent="1">
          <mxGeometry x="400" y="420" width="80" height="80" as="geometry" />
        </mxCell>
        <mxCell id="SrYekb5oVtJgjW_BPTSZ-32" value="&lt;font style=&quot;font-size: 20px;&quot;&gt;n&lt;/font&gt;" style="ellipse;whiteSpace=wrap;html=1;aspect=fixed;" vertex="1" parent="1">
          <mxGeometry x="400" y="850" width="80" height="80" as="geometry" />
        </mxCell>
        <mxCell id="SrYekb5oVtJgjW_BPTSZ-33" value="&lt;font style=&quot;font-size: 20px;&quot;&gt;1&lt;/font&gt;" style="ellipse;whiteSpace=wrap;html=1;aspect=fixed;" vertex="1" parent="1">
          <mxGeometry x="570" y="320" width="80" height="80" as="geometry" />
        </mxCell>
        <mxCell id="SrYekb5oVtJgjW_BPTSZ-34" value="&lt;font style=&quot;font-size: 20px;&quot;&gt;2&lt;/font&gt;" style="ellipse;whiteSpace=wrap;html=1;aspect=fixed;" vertex="1" parent="1">
          <mxGeometry x="570" y="420" width="80" height="80" as="geometry" />
        </mxCell>
        <mxCell id="SrYekb5oVtJgjW_BPTSZ-36" value="&lt;font style=&quot;font-size: 20px;&quot;&gt;m&lt;/font&gt;" style="ellipse;whiteSpace=wrap;html=1;aspect=fixed;" vertex="1" parent="1">
          <mxGeometry x="570" y="850" width="80" height="80" as="geometry" />
        </mxCell>
        <mxCell id="SrYekb5oVtJgjW_BPTSZ-37" value="" style="endArrow=none;dashed=1;html=1;dashPattern=1 3;strokeWidth=2;rounded=0;exitX=0.5;exitY=1;exitDx=0;exitDy=0;entryX=0.5;entryY=0;entryDx=0;entryDy=0;" edge="1" parent="1" source="SrYekb5oVtJgjW_BPTSZ-30" target="SrYekb5oVtJgjW_BPTSZ-32">
          <mxGeometry width="50" height="50" relative="1" as="geometry">
            <mxPoint x="440" y="600" as="sourcePoint" />
            <mxPoint x="439.5" y="830" as="targetPoint" />
          </mxGeometry>
        </mxCell>
        <mxCell id="SrYekb5oVtJgjW_BPTSZ-38" value="" style="endArrow=none;dashed=1;html=1;dashPattern=1 3;strokeWidth=2;rounded=0;exitX=0.5;exitY=1;exitDx=0;exitDy=0;entryX=0.5;entryY=0;entryDx=0;entryDy=0;" edge="1" parent="1" source="SrYekb5oVtJgjW_BPTSZ-34">
          <mxGeometry width="50" height="50" relative="1" as="geometry">
            <mxPoint x="609.5" y="600" as="sourcePoint" />
            <mxPoint x="609.5" y="850" as="targetPoint" />
          </mxGeometry>
        </mxCell>
        <mxCell id="SrYekb5oVtJgjW_BPTSZ-40" value="" style="endArrow=classic;html=1;rounded=0;exitX=1;exitY=0.5;exitDx=0;exitDy=0;entryX=0;entryY=0.5;entryDx=0;entryDy=0;" edge="1" parent="1" source="SrYekb5oVtJgjW_BPTSZ-1" target="SrYekb5oVtJgjW_BPTSZ-29">
          <mxGeometry width="50" height="50" relative="1" as="geometry">
            <mxPoint x="370" y="610" as="sourcePoint" />
            <mxPoint x="420" y="560" as="targetPoint" />
          </mxGeometry>
        </mxCell>
        <mxCell id="SrYekb5oVtJgjW_BPTSZ-41" value="" style="endArrow=classic;html=1;rounded=0;exitX=1;exitY=0.5;exitDx=0;exitDy=0;entryX=0;entryY=0.5;entryDx=0;entryDy=0;" edge="1" parent="1" target="SrYekb5oVtJgjW_BPTSZ-29">
          <mxGeometry width="50" height="50" relative="1" as="geometry">
            <mxPoint x="260" y="430" as="sourcePoint" />
            <mxPoint x="340" y="460" as="targetPoint" />
          </mxGeometry>
        </mxCell>
        <mxCell id="SrYekb5oVtJgjW_BPTSZ-42" value="" style="endArrow=classic;html=1;rounded=0;exitX=1;exitY=0.5;exitDx=0;exitDy=0;" edge="1" parent="1" source="SrYekb5oVtJgjW_BPTSZ-3">
          <mxGeometry width="50" height="50" relative="1" as="geometry">
            <mxPoint x="260" y="480" as="sourcePoint" />
            <mxPoint x="400" y="360" as="targetPoint" />
          </mxGeometry>
        </mxCell>
        <mxCell id="SrYekb5oVtJgjW_BPTSZ-43" value="" style="endArrow=classic;html=1;rounded=0;exitX=1;exitY=0.5;exitDx=0;exitDy=0;entryX=-0.012;entryY=0.6;entryDx=0;entryDy=0;entryPerimeter=0;" edge="1" parent="1" source="SrYekb5oVtJgjW_BPTSZ-4" target="SrYekb5oVtJgjW_BPTSZ-29">
          <mxGeometry width="50" height="50" relative="1" as="geometry">
            <mxPoint x="260" y="540" as="sourcePoint" />
            <mxPoint x="340" y="570" as="targetPoint" />
          </mxGeometry>
        </mxCell>
        <mxCell id="SrYekb5oVtJgjW_BPTSZ-44" value="" style="endArrow=classic;html=1;rounded=0;exitX=1;exitY=0.5;exitDx=0;exitDy=0;entryX=0;entryY=0.5;entryDx=0;entryDy=0;" edge="1" parent="1" source="SrYekb5oVtJgjW_BPTSZ-5" target="SrYekb5oVtJgjW_BPTSZ-29">
          <mxGeometry width="50" height="50" relative="1" as="geometry">
            <mxPoint x="260" y="600" as="sourcePoint" />
            <mxPoint x="340" y="630" as="targetPoint" />
          </mxGeometry>
        </mxCell>
        <mxCell id="SrYekb5oVtJgjW_BPTSZ-45" value="" style="endArrow=classic;html=1;rounded=0;exitX=1;exitY=0.5;exitDx=0;exitDy=0;" edge="1" parent="1" source="SrYekb5oVtJgjW_BPTSZ-6">
          <mxGeometry width="50" height="50" relative="1" as="geometry">
            <mxPoint x="250" y="670" as="sourcePoint" />
            <mxPoint x="400" y="370" as="targetPoint" />
          </mxGeometry>
        </mxCell>
        <mxCell id="SrYekb5oVtJgjW_BPTSZ-46" value="" style="endArrow=classic;html=1;rounded=0;exitX=1.013;exitY=0.425;exitDx=0;exitDy=0;exitPerimeter=0;" edge="1" parent="1" source="SrYekb5oVtJgjW_BPTSZ-7">
          <mxGeometry width="50" height="50" relative="1" as="geometry">
            <mxPoint x="260" y="730" as="sourcePoint" />
            <mxPoint x="400" y="370" as="targetPoint" />
          </mxGeometry>
        </mxCell>
        <mxCell id="SrYekb5oVtJgjW_BPTSZ-47" value="" style="endArrow=classic;html=1;rounded=0;exitX=1;exitY=0.5;exitDx=0;exitDy=0;entryX=0;entryY=0.5;entryDx=0;entryDy=0;" edge="1" parent="1" source="SrYekb5oVtJgjW_BPTSZ-1" target="SrYekb5oVtJgjW_BPTSZ-30">
          <mxGeometry width="50" height="50" relative="1" as="geometry">
            <mxPoint x="260" y="780" as="sourcePoint" />
            <mxPoint x="340" y="810" as="targetPoint" />
          </mxGeometry>
        </mxCell>
        <mxCell id="SrYekb5oVtJgjW_BPTSZ-49" value="" style="endArrow=classic;html=1;rounded=0;exitX=1;exitY=0.5;exitDx=0;exitDy=0;entryX=0;entryY=0.5;entryDx=0;entryDy=0;" edge="1" parent="1" target="SrYekb5oVtJgjW_BPTSZ-30">
          <mxGeometry width="50" height="50" relative="1" as="geometry">
            <mxPoint x="260" y="430" as="sourcePoint" />
            <mxPoint x="400" y="560" as="targetPoint" />
          </mxGeometry>
        </mxCell>
        <mxCell id="SrYekb5oVtJgjW_BPTSZ-50" value="" style="endArrow=classic;html=1;rounded=0;exitX=1;exitY=0.5;exitDx=0;exitDy=0;" edge="1" parent="1">
          <mxGeometry width="50" height="50" relative="1" as="geometry">
            <mxPoint x="260" y="630" as="sourcePoint" />
            <mxPoint x="400" y="890" as="targetPoint" />
          </mxGeometry>
        </mxCell>
        <mxCell id="SrYekb5oVtJgjW_BPTSZ-51" value="" style="endArrow=classic;html=1;rounded=0;exitX=1;exitY=0.5;exitDx=0;exitDy=0;" edge="1" parent="1" source="SrYekb5oVtJgjW_BPTSZ-7">
          <mxGeometry width="50" height="50" relative="1" as="geometry">
            <mxPoint x="260" y="920" as="sourcePoint" />
            <mxPoint x="400" y="890" as="targetPoint" />
          </mxGeometry>
        </mxCell>
        <mxCell id="SrYekb5oVtJgjW_BPTSZ-52" value="" style="endArrow=classic;html=1;rounded=0;exitX=1;exitY=0.5;exitDx=0;exitDy=0;entryX=0;entryY=0.5;entryDx=0;entryDy=0;" edge="1" parent="1" target="SrYekb5oVtJgjW_BPTSZ-32">
          <mxGeometry width="50" height="50" relative="1" as="geometry">
            <mxPoint x="260" y="825" as="sourcePoint" />
            <mxPoint x="390" y="890" as="targetPoint" />
          </mxGeometry>
        </mxCell>
        <mxCell id="SrYekb5oVtJgjW_BPTSZ-53" value="" style="endArrow=classic;html=1;rounded=0;exitX=1;exitY=0.5;exitDx=0;exitDy=0;entryX=0;entryY=0.5;entryDx=0;entryDy=0;" edge="1" parent="1" target="SrYekb5oVtJgjW_BPTSZ-32">
          <mxGeometry width="50" height="50" relative="1" as="geometry">
            <mxPoint x="260" y="730" as="sourcePoint" />
            <mxPoint x="400" y="860" as="targetPoint" />
          </mxGeometry>
        </mxCell>
        <mxCell id="SrYekb5oVtJgjW_BPTSZ-54" value="" style="endArrow=classic;html=1;rounded=0;exitX=1;exitY=0.5;exitDx=0;exitDy=0;" edge="1" parent="1">
          <mxGeometry width="50" height="50" relative="1" as="geometry">
            <mxPoint x="260" y="530" as="sourcePoint" />
            <mxPoint x="400" y="890" as="targetPoint" />
          </mxGeometry>
        </mxCell>
        <mxCell id="SrYekb5oVtJgjW_BPTSZ-55" value="" style="endArrow=classic;html=1;rounded=0;exitX=1;exitY=0.5;exitDx=0;exitDy=0;" edge="1" parent="1">
          <mxGeometry width="50" height="50" relative="1" as="geometry">
            <mxPoint x="260" y="430" as="sourcePoint" />
            <mxPoint x="400" y="890" as="targetPoint" />
          </mxGeometry>
        </mxCell>
        <mxCell id="SrYekb5oVtJgjW_BPTSZ-56" value="" style="endArrow=classic;html=1;rounded=0;exitX=1;exitY=0.5;exitDx=0;exitDy=0;" edge="1" parent="1">
          <mxGeometry width="50" height="50" relative="1" as="geometry">
            <mxPoint x="260" y="330" as="sourcePoint" />
            <mxPoint x="400" y="890" as="targetPoint" />
          </mxGeometry>
        </mxCell>
        <mxCell id="SrYekb5oVtJgjW_BPTSZ-60" value="" style="endArrow=classic;html=1;rounded=0;entryX=0;entryY=0.5;entryDx=0;entryDy=0;exitX=1;exitY=0.5;exitDx=0;exitDy=0;" edge="1" parent="1" source="SrYekb5oVtJgjW_BPTSZ-32" target="SrYekb5oVtJgjW_BPTSZ-36">
          <mxGeometry width="50" height="50" relative="1" as="geometry">
            <mxPoint x="380" y="670" as="sourcePoint" />
            <mxPoint x="430" y="620" as="targetPoint" />
          </mxGeometry>
        </mxCell>
        <mxCell id="SrYekb5oVtJgjW_BPTSZ-61" value="" style="endArrow=classic;html=1;rounded=0;entryX=0;entryY=0.5;entryDx=0;entryDy=0;" edge="1" parent="1" source="SrYekb5oVtJgjW_BPTSZ-30" target="SrYekb5oVtJgjW_BPTSZ-34">
          <mxGeometry width="50" height="50" relative="1" as="geometry">
            <mxPoint x="380" y="670" as="sourcePoint" />
            <mxPoint x="430" y="620" as="targetPoint" />
          </mxGeometry>
        </mxCell>
        <mxCell id="SrYekb5oVtJgjW_BPTSZ-63" value="" style="endArrow=classic;html=1;rounded=0;exitX=1;exitY=0.5;exitDx=0;exitDy=0;" edge="1" parent="1" source="SrYekb5oVtJgjW_BPTSZ-29">
          <mxGeometry width="50" height="50" relative="1" as="geometry">
            <mxPoint x="520" y="500" as="sourcePoint" />
            <mxPoint x="570" y="450" as="targetPoint" />
          </mxGeometry>
        </mxCell>
        <mxCell id="SrYekb5oVtJgjW_BPTSZ-64" value="" style="endArrow=classic;html=1;rounded=0;entryX=0.025;entryY=0.413;entryDx=0;entryDy=0;entryPerimeter=0;exitX=1;exitY=0.5;exitDx=0;exitDy=0;" edge="1" parent="1" source="SrYekb5oVtJgjW_BPTSZ-32" target="SrYekb5oVtJgjW_BPTSZ-33">
          <mxGeometry width="50" height="50" relative="1" as="geometry">
            <mxPoint x="380" y="670" as="sourcePoint" />
            <mxPoint x="430" y="620" as="targetPoint" />
          </mxGeometry>
        </mxCell>
        <mxCell id="SrYekb5oVtJgjW_BPTSZ-65" value="" style="endArrow=classic;html=1;rounded=0;entryX=0;entryY=0.5;entryDx=0;entryDy=0;" edge="1" parent="1" target="SrYekb5oVtJgjW_BPTSZ-33">
          <mxGeometry width="50" height="50" relative="1" as="geometry">
            <mxPoint x="480" y="460" as="sourcePoint" />
            <mxPoint x="530" y="410" as="targetPoint" />
          </mxGeometry>
        </mxCell>
        <mxCell id="SrYekb5oVtJgjW_BPTSZ-66" value="" style="endArrow=classic;html=1;rounded=0;" edge="1" parent="1">
          <mxGeometry width="50" height="50" relative="1" as="geometry">
            <mxPoint x="260" y="920" as="sourcePoint" />
            <mxPoint x="400" y="460" as="targetPoint" />
          </mxGeometry>
        </mxCell>
        <mxCell id="SrYekb5oVtJgjW_BPTSZ-67" value="" style="endArrow=classic;html=1;rounded=0;entryX=0;entryY=0.5;entryDx=0;entryDy=0;exitX=1;exitY=0.5;exitDx=0;exitDy=0;" edge="1" parent="1" source="SrYekb5oVtJgjW_BPTSZ-6" target="SrYekb5oVtJgjW_BPTSZ-30">
          <mxGeometry width="50" height="50" relative="1" as="geometry">
            <mxPoint x="380" y="670" as="sourcePoint" />
            <mxPoint x="430" y="620" as="targetPoint" />
          </mxGeometry>
        </mxCell>
        <mxCell id="SrYekb5oVtJgjW_BPTSZ-68" value="" style="endArrow=classic;html=1;rounded=0;entryX=0;entryY=0.5;entryDx=0;entryDy=0;" edge="1" parent="1" target="SrYekb5oVtJgjW_BPTSZ-30">
          <mxGeometry width="50" height="50" relative="1" as="geometry">
            <mxPoint x="260" y="730" as="sourcePoint" />
            <mxPoint x="430" y="620" as="targetPoint" />
          </mxGeometry>
        </mxCell>
        <mxCell id="SrYekb5oVtJgjW_BPTSZ-69" value="" style="endArrow=classic;html=1;rounded=0;entryX=0;entryY=0.5;entryDx=0;entryDy=0;" edge="1" parent="1" target="SrYekb5oVtJgjW_BPTSZ-30">
          <mxGeometry width="50" height="50" relative="1" as="geometry">
            <mxPoint x="260" y="630" as="sourcePoint" />
            <mxPoint x="430" y="620" as="targetPoint" />
          </mxGeometry>
        </mxCell>
        <mxCell id="SrYekb5oVtJgjW_BPTSZ-70" value="" style="endArrow=classic;html=1;rounded=0;entryX=0;entryY=0.5;entryDx=0;entryDy=0;exitX=1;exitY=0.5;exitDx=0;exitDy=0;" edge="1" parent="1" source="SrYekb5oVtJgjW_BPTSZ-3" target="SrYekb5oVtJgjW_BPTSZ-30">
          <mxGeometry width="50" height="50" relative="1" as="geometry">
            <mxPoint x="380" y="670" as="sourcePoint" />
            <mxPoint x="430" y="620" as="targetPoint" />
          </mxGeometry>
        </mxCell>
        <mxCell id="SrYekb5oVtJgjW_BPTSZ-71" value="" style="endArrow=classic;html=1;rounded=0;exitX=1;exitY=0.5;exitDx=0;exitDy=0;entryX=0.019;entryY=0.454;entryDx=0;entryDy=0;entryPerimeter=0;" edge="1" parent="1" source="SrYekb5oVtJgjW_BPTSZ-33" target="SrYekb5oVtJgjW_BPTSZ-76">
          <mxGeometry width="50" height="50" relative="1" as="geometry">
            <mxPoint x="380" y="670" as="sourcePoint" />
            <mxPoint x="780" y="480" as="targetPoint" />
          </mxGeometry>
        </mxCell>
        <mxCell id="SrYekb5oVtJgjW_BPTSZ-72" value="" style="endArrow=classic;html=1;rounded=0;entryX=0;entryY=0.5;entryDx=0;entryDy=0;" edge="1" parent="1" target="SrYekb5oVtJgjW_BPTSZ-34">
          <mxGeometry width="50" height="50" relative="1" as="geometry">
            <mxPoint x="480" y="890" as="sourcePoint" />
            <mxPoint x="430" y="620" as="targetPoint" />
          </mxGeometry>
        </mxCell>
        <mxCell id="SrYekb5oVtJgjW_BPTSZ-73" value="" style="endArrow=classic;html=1;rounded=0;exitX=1;exitY=0.5;exitDx=0;exitDy=0;" edge="1" parent="1" source="SrYekb5oVtJgjW_BPTSZ-30">
          <mxGeometry width="50" height="50" relative="1" as="geometry">
            <mxPoint x="380" y="670" as="sourcePoint" />
            <mxPoint x="570" y="890" as="targetPoint" />
          </mxGeometry>
        </mxCell>
        <mxCell id="SrYekb5oVtJgjW_BPTSZ-74" value="" style="endArrow=classic;html=1;rounded=0;entryX=0;entryY=0.5;entryDx=0;entryDy=0;exitX=1;exitY=0.5;exitDx=0;exitDy=0;" edge="1" parent="1" source="SrYekb5oVtJgjW_BPTSZ-29" target="SrYekb5oVtJgjW_BPTSZ-36">
          <mxGeometry width="50" height="50" relative="1" as="geometry">
            <mxPoint x="380" y="670" as="sourcePoint" />
            <mxPoint x="430" y="620" as="targetPoint" />
          </mxGeometry>
        </mxCell>
        <mxCell id="SrYekb5oVtJgjW_BPTSZ-75" value="&lt;font style=&quot;font-size: 25px;&quot;&gt;Output Layer&lt;/font&gt;" style="text;html=1;align=center;verticalAlign=middle;resizable=0;points=[];autosize=1;strokeColor=none;fillColor=none;" vertex="1" parent="1">
          <mxGeometry x="800" y="229" width="170" height="40" as="geometry" />
        </mxCell>
        <mxCell id="SrYekb5oVtJgjW_BPTSZ-76" value="&lt;font style=&quot;font-size: 20px;&quot;&gt;1&lt;/font&gt;" style="ellipse;whiteSpace=wrap;html=1;aspect=fixed;" vertex="1" parent="1">
          <mxGeometry x="782.5" y="440" width="80" height="80" as="geometry" />
        </mxCell>
        <mxCell id="SrYekb5oVtJgjW_BPTSZ-77" value="&lt;font style=&quot;font-size: 20px;&quot;&gt;2&lt;/font&gt;" style="ellipse;whiteSpace=wrap;html=1;aspect=fixed;" vertex="1" parent="1">
          <mxGeometry x="782.5" y="540" width="80" height="80" as="geometry" />
        </mxCell>
        <mxCell id="SrYekb5oVtJgjW_BPTSZ-78" value="&lt;font style=&quot;font-size: 20px;&quot;&gt;3&lt;/font&gt;" style="ellipse;whiteSpace=wrap;html=1;aspect=fixed;" vertex="1" parent="1">
          <mxGeometry x="787.5" y="640" width="80" height="80" as="geometry" />
        </mxCell>
        <mxCell id="SrYekb5oVtJgjW_BPTSZ-79" value="&lt;font style=&quot;font-size: 20px;&quot;&gt;4&lt;/font&gt;" style="ellipse;whiteSpace=wrap;html=1;aspect=fixed;" vertex="1" parent="1">
          <mxGeometry x="787.5" y="740" width="80" height="80" as="geometry" />
        </mxCell>
        <mxCell id="SrYekb5oVtJgjW_BPTSZ-80" value="&lt;font style=&quot;font-size: 25px;&quot;&gt;Severity&lt;/font&gt;" style="text;html=1;align=center;verticalAlign=middle;resizable=0;points=[];autosize=1;strokeColor=none;fillColor=none;" vertex="1" parent="1">
          <mxGeometry x="770" y="840" width="110" height="40" as="geometry" />
        </mxCell>
        <mxCell id="SrYekb5oVtJgjW_BPTSZ-81" value="" style="shape=flexArrow;endArrow=classic;html=1;rounded=0;" edge="1" parent="1">
          <mxGeometry width="50" height="50" relative="1" as="geometry">
            <mxPoint x="880" y="479.5" as="sourcePoint" />
            <mxPoint x="960" y="479.5" as="targetPoint" />
          </mxGeometry>
        </mxCell>
        <mxCell id="SrYekb5oVtJgjW_BPTSZ-82" value="" style="shape=flexArrow;endArrow=classic;html=1;rounded=0;" edge="1" parent="1">
          <mxGeometry width="50" height="50" relative="1" as="geometry">
            <mxPoint x="880" y="584" as="sourcePoint" />
            <mxPoint x="960" y="584" as="targetPoint" />
          </mxGeometry>
        </mxCell>
        <mxCell id="SrYekb5oVtJgjW_BPTSZ-83" value="" style="shape=flexArrow;endArrow=classic;html=1;rounded=0;" edge="1" parent="1">
          <mxGeometry width="50" height="50" relative="1" as="geometry">
            <mxPoint x="880" y="679.5" as="sourcePoint" />
            <mxPoint x="960" y="679.5" as="targetPoint" />
          </mxGeometry>
        </mxCell>
        <mxCell id="SrYekb5oVtJgjW_BPTSZ-84" value="" style="shape=flexArrow;endArrow=classic;html=1;rounded=0;" edge="1" parent="1">
          <mxGeometry width="50" height="50" relative="1" as="geometry">
            <mxPoint x="880" y="779.5" as="sourcePoint" />
            <mxPoint x="960" y="779.5" as="targetPoint" />
          </mxGeometry>
        </mxCell>
        <mxCell id="SrYekb5oVtJgjW_BPTSZ-86" value="&lt;font style=&quot;font-size: 25px;&quot;&gt;Fatal Accident&lt;/font&gt;" style="text;html=1;align=left;verticalAlign=middle;resizable=0;points=[];autosize=1;strokeColor=none;fillColor=none;" vertex="1" parent="1">
          <mxGeometry x="980" y="460" width="180" height="40" as="geometry" />
        </mxCell>
        <mxCell id="SrYekb5oVtJgjW_BPTSZ-87" value="&lt;font style=&quot;font-size: 25px;&quot;&gt;&amp;nbsp;Serious injury accident&lt;/font&gt;" style="text;html=1;align=left;verticalAlign=middle;resizable=0;points=[];autosize=1;strokeColor=none;fillColor=none;" vertex="1" parent="1">
          <mxGeometry x="970" y="565" width="280" height="40" as="geometry" />
        </mxCell>
        <mxCell id="SrYekb5oVtJgjW_BPTSZ-88" value="&lt;font style=&quot;font-size: 25px;&quot;&gt;Other injury accident&lt;/font&gt;" style="text;html=1;align=left;verticalAlign=middle;resizable=0;points=[];autosize=1;strokeColor=none;fillColor=none;" vertex="1" parent="1">
          <mxGeometry x="970" y="660" width="250" height="40" as="geometry" />
        </mxCell>
        <mxCell id="SrYekb5oVtJgjW_BPTSZ-89" value="&lt;font style=&quot;font-size: 25px;&quot;&gt;Non injury accident&lt;/font&gt;" style="text;html=1;align=left;verticalAlign=middle;resizable=0;points=[];autosize=1;strokeColor=none;fillColor=none;" vertex="1" parent="1">
          <mxGeometry x="970" y="760" width="240" height="40" as="geometry" />
        </mxCell>
        <mxCell id="SrYekb5oVtJgjW_BPTSZ-90" value="" style="endArrow=classic;html=1;rounded=0;exitX=1;exitY=0.5;exitDx=0;exitDy=0;" edge="1" parent="1" target="SrYekb5oVtJgjW_BPTSZ-76">
          <mxGeometry width="50" height="50" relative="1" as="geometry">
            <mxPoint x="650" y="460" as="sourcePoint" />
            <mxPoint x="780" y="480" as="targetPoint" />
          </mxGeometry>
        </mxCell>
        <mxCell id="SrYekb5oVtJgjW_BPTSZ-91" value="" style="endArrow=classic;html=1;rounded=0;exitX=1;exitY=0.5;exitDx=0;exitDy=0;entryX=0;entryY=0.5;entryDx=0;entryDy=0;" edge="1" parent="1" target="SrYekb5oVtJgjW_BPTSZ-77">
          <mxGeometry width="50" height="50" relative="1" as="geometry">
            <mxPoint x="650" y="890" as="sourcePoint" />
            <mxPoint x="780" y="1010" as="targetPoint" />
          </mxGeometry>
        </mxCell>
        <mxCell id="SrYekb5oVtJgjW_BPTSZ-92" value="" style="endArrow=classic;html=1;rounded=0;exitX=1;exitY=0.5;exitDx=0;exitDy=0;entryX=0.01;entryY=0.421;entryDx=0;entryDy=0;entryPerimeter=0;" edge="1" parent="1" target="SrYekb5oVtJgjW_BPTSZ-76">
          <mxGeometry width="50" height="50" relative="1" as="geometry">
            <mxPoint x="650" y="890" as="sourcePoint" />
            <mxPoint x="780" y="1010" as="targetPoint" />
          </mxGeometry>
        </mxCell>
        <mxCell id="SrYekb5oVtJgjW_BPTSZ-93" value="" style="endArrow=classic;html=1;rounded=0;exitX=1;exitY=0.5;exitDx=0;exitDy=0;entryX=0;entryY=0.5;entryDx=0;entryDy=0;" edge="1" parent="1" source="SrYekb5oVtJgjW_BPTSZ-36" target="SrYekb5oVtJgjW_BPTSZ-79">
          <mxGeometry width="50" height="50" relative="1" as="geometry">
            <mxPoint x="660" y="900" as="sourcePoint" />
            <mxPoint x="793" y="590" as="targetPoint" />
          </mxGeometry>
        </mxCell>
        <mxCell id="SrYekb5oVtJgjW_BPTSZ-94" value="" style="endArrow=classic;html=1;rounded=0;exitX=1;exitY=0.5;exitDx=0;exitDy=0;entryX=0;entryY=0.5;entryDx=0;entryDy=0;" edge="1" parent="1" source="SrYekb5oVtJgjW_BPTSZ-36" target="SrYekb5oVtJgjW_BPTSZ-78">
          <mxGeometry width="50" height="50" relative="1" as="geometry">
            <mxPoint x="670" y="910" as="sourcePoint" />
            <mxPoint x="803" y="600" as="targetPoint" />
          </mxGeometry>
        </mxCell>
        <mxCell id="SrYekb5oVtJgjW_BPTSZ-95" value="" style="endArrow=classic;html=1;rounded=0;exitX=1;exitY=0.5;exitDx=0;exitDy=0;entryX=0.019;entryY=0.454;entryDx=0;entryDy=0;entryPerimeter=0;" edge="1" parent="1">
          <mxGeometry width="50" height="50" relative="1" as="geometry">
            <mxPoint x="648.48" y="460" as="sourcePoint" />
            <mxPoint x="782.48" y="576" as="targetPoint" />
          </mxGeometry>
        </mxCell>
        <mxCell id="SrYekb5oVtJgjW_BPTSZ-96" value="" style="endArrow=classic;html=1;rounded=0;exitX=1;exitY=0.5;exitDx=0;exitDy=0;entryX=0;entryY=0.5;entryDx=0;entryDy=0;" edge="1" parent="1" source="SrYekb5oVtJgjW_BPTSZ-33" target="SrYekb5oVtJgjW_BPTSZ-77">
          <mxGeometry width="50" height="50" relative="1" as="geometry">
            <mxPoint x="650" y="550" as="sourcePoint" />
            <mxPoint x="784" y="666" as="targetPoint" />
          </mxGeometry>
        </mxCell>
        <mxCell id="SrYekb5oVtJgjW_BPTSZ-97" value="" style="endArrow=classic;html=1;rounded=0;entryX=0.01;entryY=0.619;entryDx=0;entryDy=0;entryPerimeter=0;exitX=1;exitY=0.5;exitDx=0;exitDy=0;" edge="1" parent="1" source="SrYekb5oVtJgjW_BPTSZ-33" target="SrYekb5oVtJgjW_BPTSZ-78">
          <mxGeometry width="50" height="50" relative="1" as="geometry">
            <mxPoint x="650" y="370" as="sourcePoint" />
            <mxPoint x="770" y="766" as="targetPoint" />
          </mxGeometry>
        </mxCell>
        <mxCell id="SrYekb5oVtJgjW_BPTSZ-98" value="" style="endArrow=classic;html=1;rounded=0;entryX=0;entryY=0.5;entryDx=0;entryDy=0;exitX=1;exitY=0.5;exitDx=0;exitDy=0;" edge="1" parent="1" source="SrYekb5oVtJgjW_BPTSZ-33" target="SrYekb5oVtJgjW_BPTSZ-79">
          <mxGeometry width="50" height="50" relative="1" as="geometry">
            <mxPoint x="640" y="410" as="sourcePoint" />
            <mxPoint x="778" y="740" as="targetPoint" />
          </mxGeometry>
        </mxCell>
        <mxCell id="SrYekb5oVtJgjW_BPTSZ-99" value="" style="endArrow=classic;html=1;rounded=0;exitX=1;exitY=0.5;exitDx=0;exitDy=0;entryX=0;entryY=0.5;entryDx=0;entryDy=0;" edge="1" parent="1" source="SrYekb5oVtJgjW_BPTSZ-34" target="SrYekb5oVtJgjW_BPTSZ-78">
          <mxGeometry width="50" height="50" relative="1" as="geometry">
            <mxPoint x="658.48" y="470" as="sourcePoint" />
            <mxPoint x="792.48" y="586" as="targetPoint" />
          </mxGeometry>
        </mxCell>
        <mxCell id="SrYekb5oVtJgjW_BPTSZ-100" value="" style="endArrow=classic;html=1;rounded=0;" edge="1" parent="1">
          <mxGeometry width="50" height="50" relative="1" as="geometry">
            <mxPoint x="650" y="460" as="sourcePoint" />
            <mxPoint x="790" y="780" as="targetPoint" />
          </mxGeometry>
        </mxCell>
        <mxCell id="SrYekb5oVtJgjW_BPTSZ-101" value="" style="endArrow=none;dashed=1;html=1;dashPattern=1 3;strokeWidth=2;rounded=0;" edge="1" parent="1">
          <mxGeometry width="50" height="50" relative="1" as="geometry">
            <mxPoint x="325" y="984" as="sourcePoint" />
            <mxPoint x="344" y="220" as="targetPoint" />
          </mxGeometry>
        </mxCell>
        <mxCell id="SrYekb5oVtJgjW_BPTSZ-102" value="" style="endArrow=none;dashed=1;html=1;dashPattern=1 3;strokeWidth=2;rounded=0;" edge="1" parent="1">
          <mxGeometry width="50" height="50" relative="1" as="geometry">
            <mxPoint x="718" y="984" as="sourcePoint" />
            <mxPoint x="737" y="220" as="targetPoint" />
          </mxGeometry>
        </mxCell>
      </root>
    </mxGraphModel>
  </diagram>
</mxfile>
